name C:\Users\u0101727\Documents\MyRepositories\upper-imu-dc\Results\main_tracking\Case_31\FLX01_linearAccelerations_bodyFrame.mot
datacolumns 4
datarows 82
range 2.01000000 2.82000000
endheader 
time	radius_imu_x	radius_imu_y	radius_imu_z	
          2.01000000	         -8.44567967	         -2.78902361	          5.63060965	
          2.02000000	         -7.81099203	         -3.04574142	          5.63578504	
          2.03000000	         -7.17133013	         -3.28638057	          5.66448723	
          2.04000000	         -6.55498040	         -3.52236714	          5.71126379	
          2.05000000	         -5.98939752	         -3.76128649	          5.77246886	
          2.06000000	         -5.49509263	         -4.00342340	          5.84686864	
          2.07000000	         -5.08131468	         -4.24094485	          5.93525748	
          2.08000000	         -4.74476446	         -4.45975929	          6.03926366	
          2.09000000	         -4.47129048	         -4.64334939	          6.15985011	
          2.10000000	         -4.24004960	         -4.77801080	          6.29582740	
          2.11000000	         -4.02966298	         -4.85866320	          6.44251239	
          2.12000000	         -3.82527037	         -4.89280442	          6.59124491	
          2.13000000	         -3.62478970	         -4.89964535	          6.73057335	
          2.14000000	         -3.44123856	         -4.90378748	          6.84905484	
          2.15000000	         -3.29741402	         -4.92642321	          6.93866523	
          2.16000000	         -3.21473163	         -4.97883396	          6.99695421	
          2.17000000	         -3.20364323	         -5.06106547	          7.02654597	
          2.18000000	         -3.26061744	         -5.16546501	          7.03247021	
          2.19000000	         -3.37163088	         -5.28292450	          7.01909695	
          2.20000000	         -3.51933581	         -5.40855692	          6.98830193	
          2.21000000	         -3.68923726	         -5.54343777	          6.93953786	
          2.22000000	         -3.87085123	         -5.69130825	          6.87140906	
          2.23000000	         -4.05463410	         -5.85286662	          6.78360706	
          2.24000000	         -4.22930793	         -6.02205791	          6.67796137	
          2.25000000	         -4.38200114	         -6.18654265	          6.55808723	
          2.26000000	         -4.49992339	         -6.33126157	          6.42803533	
          2.27000000	         -4.57212525	         -6.44284034	          6.29080496	
          2.28000000	         -4.59126717	         -6.51310654	          6.14750275	
          2.29000000	         -4.55522383	         -6.54114918	          5.99733182	
          2.30000000	         -4.46809205	         -6.53389934	          5.83817655	
          2.31000000	         -4.34070395	         -6.50510569	          5.66746024	
          2.32000000	         -4.19014830	         -6.47266988	          5.48301285	
          2.33000000	         -4.03687283	         -6.45443346	          5.28403359	
          2.34000000	         -3.89916207	         -6.46344931	          5.07216961	
          2.35000000	         -3.78804467	         -6.50495188	          4.85224150	
          2.36000000	         -3.70600931	         -6.57660361	          4.63208282	
          2.37000000	         -3.64884619	         -6.67107923	          4.42160055	
          2.38000000	         -3.60784461	         -6.77902860	          4.23147291	
          2.39000000	         -3.57189260	         -6.89160882	          4.07168024	
          2.40000000	         -3.53000133	         -7.00221368	          3.95007840	
          2.41000000	         -3.47320354	         -7.10678169	          3.87145746	
          2.42000000	         -3.39492670	         -7.20297363	          3.83735226	
          2.43000000	         -3.29072699	         -7.28944595	          3.84639456	
          2.44000000	         -3.15859629	         -7.36576359	          3.89487315	
          2.45000000	         -3.00015232	         -7.43249791	          3.97734069	
          2.46000000	         -2.82223955	         -7.49111104	          4.08710873	
          2.47000000	         -2.63786384	         -7.54360622	          4.21647349	
          2.48000000	         -2.46506700	         -7.59186455	          4.35682386	
          2.49000000	         -2.32303941	         -7.63678237	          4.49898229	
          2.50000000	         -2.22703488	         -7.67812691	          4.63379321	
          2.51000000	         -2.18500812	         -7.71576396	          4.75265691	
          2.52000000	         -2.19688707	         -7.75101483	          4.84797206	
          2.53000000	         -2.25526361	         -7.78633871	          4.91374606	
          2.54000000	         -2.34685803	         -7.82370165	          4.94636871	
          2.55000000	         -2.45489705	         -7.86376204	          4.94515345	
          2.56000000	         -2.56195362	         -7.90695386	          4.91230969	
          2.57000000	         -2.65233391	         -7.95525457	          4.85234752	
          2.58000000	         -2.71357307	         -8.01253428	          4.77126897	
          2.59000000	         -2.73754693	         -8.08250733	          4.67594151	
          2.60000000	         -2.72141888	         -8.16515173	          4.57375949	
          2.61000000	         -2.66794055	         -8.25401376	          4.47226109	
          2.62000000	         -2.58463556	         -8.33683791	          4.37827633	
          2.63000000	         -2.48210042	         -8.39972209	          4.29671721	
          2.64000000	         -2.37180793	         -8.43241466	          4.22965380	
          2.65000000	         -2.26393719	         -8.43205778	          4.17620238	
          2.66000000	         -2.16587542	         -8.40429109	          4.13311563	
          2.67000000	         -2.08190142	         -8.36212603	          4.09556802	
          2.68000000	         -2.01424822	         -8.32329914	          4.05785058	
          2.69000000	         -1.96481864	         -8.30631433	          4.01416719	
          2.70000000	         -1.93603419	         -8.32543544	          3.95979148	
          2.71000000	         -1.92994267	         -8.38590245	          3.89232695	
          2.72000000	         -1.94622938	         -8.48143165	          3.81236106	
          2.73000000	         -1.98081183	         -8.59562227	          3.72307152	
          2.74000000	         -2.02636178	         -8.70734934	          3.62896558	
          2.75000000	         -2.07448177	         -8.79816221	          3.53429499	
          2.76000000	         -2.11783643	         -8.85816355	          3.44184732	
          2.77000000	         -2.15094123	         -8.88738329	          3.35274703	
          2.78000000	         -2.16932397	         -8.89258545	          3.26710867	
          2.79000000	         -2.16903774	         -8.88249928	          3.18502895	
          2.80000000	         -2.14635014	         -8.86400809	          3.10695597	
          2.81000000	         -2.09831727	         -8.84098087	          3.03348219	
          2.82000000	         -2.02485993	         -8.81588897	          2.96500765	
